<?xml version="1.0" standalone="no"?>
<!DOCTYPE svg PUBLIC "-//W3C//DTD SVG 1.1//EN" "http://www.w3.org/Graphics/SVG/1.1/DTD/svg11.dtd" >
<svg xmlns="http://www.w3.org/2000/svg">
<metadata>Generated by IcoMoon</metadata>
<defs>
<font id="icomoon" horiz-adv-x="1024">
<font-face units-per-em="1024" ascent="960" descent="-64" />
<missing-glyph horiz-adv-x="1024" />
<glyph unicode="&#x20;" horiz-adv-x="512" d="" />
<glyph unicode="&#xe900;" glyph-name="uniE900" d="M544 896c-265.1 0-480-214.9-480-480s214.9-480 480-480 480 214.9 480 480-214.9 480-480 480zM544 0c-229.8 0-416 186.2-416 416s186.2 416 416 416 416-186.2 416-416-186.2-416-416-416zM517 193.2h64v-64.1h-64v64.1zM664.3 603.3c25.6-25.6 38.4-57.7 38.4-102.5 0-32-6.4-64.1-25.6-83.3s-32.9-34.3-57.7-57.7c-12.8-12.8-19.2-19.2-25.6-32s-12.8-32-12.8-51.3v-12.8h-76.9v12.8c0 25.6 6.4 51.3 12.8 64.1 12.8 19.2 38.4 51.3 83.3 89.7 26.1 22.4 32 51.3 32 70.5 0 25.6-6.4 44.9-19.2 57.7s-38.4 19.2-64.1 19.2-51.3-12.8-64.1-32c-12.8-12.8-19.2-38.4-19.2-70.5h-76.9c0 51.3 12.8 89.7 44.9 121.8s70.5 44.9 121.8 44.9c44.9-0.1 83.3-12.9 108.9-38.6z" />
<glyph unicode="&#xe901;" glyph-name="-" d="M191.5 896v-897c0-34.9-28.6-63.5-63.5-63.5v0c-34.9 0-63.5 28.6-63.5 63.5v897c0 34.9 28.6 63.5 63.5 63.5v0c34.9 0 63.5-28.6 63.5-63.5zM574.5 896v-897c0-34.9-28.6-63.5-63.5-63.5v0c-34.9 0-63.5 28.6-63.5 63.5v897c0 34.9 28.6 63.5 63.5 63.5v0c34.9 0 63.5-28.6 63.5-63.5zM959.5 896v-897c0-34.9-28.6-63.5-63.5-63.5v0c-34.9 0-63.5 28.6-63.5 63.5v897c0 34.9 28.6 63.5 63.5 63.5v0c34.9 0 63.5-28.6 63.5-63.5z" />
<glyph unicode="&#xe902;" glyph-name="-1" d="M960.5 768h-897c-34.9 0-63.5 28.6-63.5 63.5v0c0 34.9 28.6 63.5 63.5 63.5h897c34.9 0 63.5-28.6 63.5-63.5v0c0-34.9-28.6-63.5-63.5-63.5zM960.5 385h-897c-34.9 0-63.5 28.6-63.5 63.5v0c0 34.9 28.6 63.5 63.5 63.5h897c34.9 0 63.5-28.6 63.5-63.5v0c0-34.9-28.6-63.5-63.5-63.5zM960.5 0h-897c-34.9 0-63.5 28.6-63.5 63.5v0c0 34.9 28.6 63.5 63.5 63.5h897c34.9 0 63.5-28.6 63.5-63.5v0c0-34.9-28.6-63.5-63.5-63.5z" />
<glyph unicode="&#xe903;" glyph-name="1" d="M1024 417.5c0 265.1-214.9 480-480 480s-480-214.9-480-480c0-0.3 0-0.5 0-0.8 0-0.2 0-0.5 0-0.7 0-16.2 0.8-32.3 2.5-48.5l0.1-1.3c0.2-1.9 0.5-3.8 0.8-5.8 27.6-233.1 222.2-415 460.9-422.7 6.4-1.1 11.7-1.8 15.4-1.8 190.3 0 355 111.4 432.5 272.4 30.6 63.3 47.8 134.3 47.8 209.2zM134.3 344.8c2 1.4 3.8 2.8 5.5 4.2 12.5 10.4 15.3 24.8 16.9 33.6 16.1-1.8 35.3-19 50.8-32.9 13.1-11.7 24.4-21.8 37.1-26.9 4.3-1.7 10.5-3.6 17.7-5.6 9.1-2.6 36.9-10.6 40.9-16 0 0-0.1-2-2.6-6.2-38.4-66-57.3-84.7-62.2-88.9-13.1-11.3-19.6-27.8-22.4-44.5-41 52.5-69.6 115-81.7 183.2zM544 1.5c-86.5 0-166.9 26.4-233.4 71.6-18.9 19.6-33.8 41.9-35.8 49.2-2.3 20.7 0.5 35.4 2.6 38.3 18.8 16.2 44.1 51.3 75 104.3 14.5 24.9 11.7 44.9 6.7 57.3-13.5 33.4-53.7 45-80.3 52.6-4.9 1.4-9.1 2.5-11.8 3.6-3.6 1.7-12.8 10-19.5 16-20.9 18.8-49.6 44.5-85.4 48-14 1.3-24.5-0.1-33.6-4.1 2 40.3 9.7 79.2 22.4 115.7 8.4-10.6 21.4-16.6 37.1-16.6l4.6 0.2c20.3 1.4 66.8 4.7 89.7 33.9 7.2-10.7 17.2-18 29.1-21.5 3.9-6.3 14-22 35.9-22 5.1 0 10.2 1 15.8 2.8 28.2 9.4 32 37.5 34 52.6 0.6 4.6 1.7 12.2 2.6 14 17.5 19.9 28.9 35.3 28.9 66.9 0 6.6 2.3 18.6 17.7 25.6 1 0.5 4.9 2 12 2 14 0 25-5.9 26.3-9.1 5.1-12.4 12.6-23 19.2-31.9-11.4-6.8-21.8-13.5-28.4-22.3-1.6-2.1-6.4-6-11.9-10.5s-12.3-10-20.5-17.3c-11-9.8-36.6-36.3-35.6-69.6 0.4-13.4 5.3-32.8 26.3-49.3 30.4-24 54.5-42.9 97.8-42.9 16.4 0 35-13.6 50-24.5 4.6-3.3 8.8-6.4 12.7-9 13.7-9.2 17.5-15.4 22-22.4 0.9-3.1 1.1-7.2 1.5-11.7 1.3-13.2 3-31.4 12.1-47.8 7-12.5 7-53.4 7-66.9 0-20.6 5.9-45.1 10.6-64.7l3-12.6c0.5-2.6 0.2-10.5 0-15.8-0.7-18.7-2.7-68.3 41.8-72.4 45.5-4 64.7 32.2 86.8 74.4 13.3 25.4 20.4 31.8 28.7 39.2 5.2 4.7 11.1 10 17.7 18.5 20.3 26 25.2 49.5 26.8 68.4 1 1.5 2.4 2.9 3.7 4.4 8.6 9.8 23 26.2 23 59.2 0 37.5 0 44.2-11.1 69.6-4.7 10.6-10.2 17.8-13.9 22.6-0.4 0.5-0.8 1-1.2 1.5 0.5 2.7 1 5.5 1.3 8.2 1.9 1.1 4.6 2.5 8.3 4.3 7.5 3.8 14.5 6.7 20.8 9.3 20.1 8.3 42.8 17.7 53.7 45 1.5 3.8 2.7 7.7 3.8 11.6 10.6-37 16-75.3 16-114.5 0-91.4-29.6-176-79.6-244.8-75.9-101.2-196.8-166.6-333-166.6zM544 833.5c154.5 0 289.4-84.2 361.1-209.3-8.4-8.1-12-19.2-14-25.4-2.9-8.6-3.8-18.3-4.7-28.6-0.9-10.9-2-23.3-5.4-31.9-1.3-3.4-5.9-5.7-21-12-7.5-3.1-15.7-6.5-24.6-11-23.6-11.8-38.2-21-40.6-47.7-0.2-1.9-0.4-4-1-7-5.7-25.9 5.7-40.7 12.5-49.5 2.8-3.5 4.8-6.1 6.5-10 6.1-13.9 6.1-13.9 6.1-45.6 0-10.5-2.3-13-8.2-19.8-6.1-7-15.5-17.7-17.4-34.9-1.7-15.9-4.7-27-15.3-40.7-3.6-4.7-7-7.6-10.4-10.7-10.4-9.4-23.4-21.1-41.7-56-3.5-6.7-9.6-18.2-15.6-27.7 0.3 9 0.4 18.2-1.5 26.7l-3.2 13.6c-4 16.5-9 37.1-9 50.6 0 33.9-1.1 72-14.5 96.1-3 5.4-4 15.5-4.8 24.4-1.1 11.8-2.3 23.9-8.6 34.5-7.3 12.1-16.3 27.2-41.2 43.8-3.3 2.2-6.8 4.8-10.6 7.6-20.8 15.2-49.4 36.1-85.3 36.1-21.6 0-31.8 7.3-60.8 30.1-2 1.6-3.5 3.2-3.5 4-0.1 3.6 4.8 13.4 15.6 23 7.4 6.5 13.4 11.5 18.4 15.5 9 7.3 16.1 13 21.1 19.9 2.3 2.2 10.8 7.2 15.9 10.2 7.8 4.6 15.4 9.2 20.6 13.3 29.4 23.1 4.8 55.9-4.4 68.2-5.4 7.2-11.6 15.4-14.6 22.6-14.1 33.9-52.8 45.9-81.6 45.9-13.5 0-26.2-2.6-37.1-7.3-32.6-14.8-52.8-45.5-52.8-80.2 0-10.3-0.5-12-14.1-27.5-9.1-10.4-12.9-22.4-15-33.2-2.6 1.3-5.4 2.3-8.2 3.1-0.8 3-1.3 8.7 0 14.6 3.8 16.7 0.7 32.2-8.5 43.7-12.6 15.7-35.4 20.7-56.1 11.8-27.6-11.8-28.8-33.3-29.5-47.5-0.3-4.8-0.6-11-1.7-19.2-0.1-1.2-2.1-6.1-22.6-9.8 7.8 11.5 9.7 25.6 4.8 39.1-2.4 6.5-6.7 13.6-12.8 18.8 75.4 106.1 199.3 175.3 339.3 175.3z" />
<glyph unicode="&#xe904;" glyph-name="2" d="M892.5 581.6h-740.5l123.1 123.1c12.5 12.5 12.5 32.8 0 45.3s-32.8 12.5-45.3 0l-181-181c-12.5-12.5-12.5-32.8 0-45.3l181-181c12.5-12.5 32.8-12.5 45.3 0s12.5 32.8 0 45.3l-129.6 129.6h731c26.5 0 48-21.5 48-48v-290.1c0-26.5-21.5-48-48-48h-496c-17.7 0-32-14.3-32-32s14.3-32 32-32h512c53 0 96 43 96 96v322.1c0 53-43 96-96 96z" />
<glyph unicode="&#xe905;" glyph-name="3" d="M149.3 487.5c-3.3 14.4-16.3 24.5-31.1 24.5v0c-20.6 0-35.9-19.2-31.2-39.2 36.8-156.2 155.4-280.8 308-326.2v-114.6c0-17.6 14.4-32 32-32v0c17.6 0 32 14.4 32 32v100.6h0.1v64.8c-152.5 25.5-274.6 141-309.8 290.1zM928 512v0c-14.8 0-27.7-10.1-31.1-24.5-35.2-149.1-157.2-264.6-309.7-290.2v-165.3c0-17.6 14.4-32 32-32v0c17.6 0 32 14.4 32 32v114.6c152.7 45.4 271.2 170 308 326.2 4.7 20-10.7 39.2-31.2 39.2zM787.2 595.5c0 16 0 32.4-2.3 47.9l30.8 37-76.6 130.2-43-6.1c-24.5 21.7-51 37.9-79.2 48.4l-18.5 43.1h-150.6l-18.5-43.2c-28.2-10.5-54.8-26.7-79.2-48.4l-43 6.1-76.3-129.8 25.7-32.1c-2.6-16.9-2.6-31.6-2.6-48 0-15.1 0-30.5 4.5-46.3l-27.9-33.3 76.6-130.2 43 6.1c24.5-21.7 51-37.9 79.2-48.4l18.5-43.2h149.1l18.8 37.5c27.8 10.1 53.9 25.8 78.1 46.8l43.5-12.4 78.4 133.4-31.1 37.3c2.6 16.7 2.6 31.3 2.6 47.6zM524.1 392.5c-115.9 0-209.8 94-209.8 209.8s94 209.8 209.8 209.8 209.8-94 209.8-209.8-93.9-209.8-209.8-209.8zM523.1 718.5c-65.4 0-118.3-53-118.3-118.3s53-118.3 118.3-118.3 118.3 53 118.3 118.3-53 118.3-118.3 118.3zM523.1 541c-32.7 0-59.2 26.5-59.2 59.2s26.5 59.2 59.2 59.2 59.2-26.5 59.2-59.2-26.5-59.2-59.2-59.2z" />
<glyph unicode="&#xe906;" glyph-name="4" d="M256 480c0-53.019-42.981-96-96-96s-96 42.981-96 96c0 53.019 42.981 96 96 96s96-42.981 96-96zM640 480c0-53.019-42.981-96-96-96s-96 42.981-96 96c0 53.019 42.981 96 96 96s96-42.981 96-96zM1024 480c0-53.019-42.981-96-96-96s-96 42.981-96 96c0 53.019 42.981 96 96 96s96-42.981 96-96z" />
<glyph unicode="&#xe907;" glyph-name="5" d="M962.9 448v0c-17.6 0-32-14.4-32-32v-256c0-17.6 14.4-32 32-32v0c17.6 0 32 14.4 32 32v256c0 17.6-14.4 32-32 32zM942.7 490.1c32.7 16.4 53.1 49.3 53.1 85.9s-20.3 69.5-53.1 85.9l-369 184.5c-26.8 13.4-58.8 13.4-85.6 0.1l-368.8-183c-32.8-16.3-53.2-49.1-53.3-85.7s20.1-69.6 52.8-86l60.1-30.3v-288.9c0-48.3 39.9-93 112.5-126 66.2-30.1 151.3-46.7 239.5-46.7s173.3 16.6 239.5 46.7c72.5 33 112.5 77.7 112.5 126v287.6l59.8 29.9zM130 577.7c0 12.4 6.7 23.1 17.8 28.6l368.8 183c8.9 4.4 19.6 4.4 28.5 0l369-184.5c11.1-5.5 17.7-16.2 17.7-28.6s-6.6-23.1-17.7-28.6l-368.8-184.6c-9-4.5-19.7-4.5-28.7 0l-369 186c-11.1 5.6-17.7 16.3-17.6 28.7zM818.9 172.7c0-15.5-19.6-42.6-75-67.7-57.2-26-134.9-41-213-41s-155.8 14.9-213 41c-55.3 25.2-75 52.2-75 67.7v256.6l244.9-123.4c13.5-6.8 28.4-10.2 43.2-10.2 14.7 0 29.5 3.4 42.9 10.1l245 122.5v-255.6z" />
<glyph unicode="&#xe908;" glyph-name="6" d="M896 506.5v5.5c0 211.2-172.8 384-384 384v0c-210.4 0-382.7-171.5-384-381.7 0-0.2 0-0.4 0-0.6v-7.2c-37.2-13.3-64-48.9-64-90.5v-64c0-52.8 43.2-96 96-96s96 43.2 96 96v64c0 41.6-26.8 77.2-64 90.5v5.5c0 176 144 320 320 320v0c176 0 320-144 320-320v0-5.5c-37.2-13.3-64-48.9-64-90.5v-64c0-41.6 26.8-77.2 64-90.5v-23.8c0-95.6-78.2-173.7-173.7-173.7h-18.3c0 35.2-28.8 64-64 64h-64c-35.2 0-64-28.8-64-64v0c0-35.2 28.8-64 64-64v0h137.5c131.3 0 239.5 104 246.2 233.8h0.3v27.7c37.2 13.3 64 48.9 64 90.5v64c0 41.6-26.8 77.2-64 90.5zM192 352c0-17.6-14.4-32-32-32s-32 14.4-32 32v64c0 17.6 14.4 32 32 32s32-14.4 32-32v-64zM896 352c0-17.6-14.4-32-32-32s-32 14.4-32 32v64c0 17.6 14.4 32 32 32s32-14.4 32-32v-64z" />
<glyph unicode="&#xe909;" glyph-name="7" d="M352 640h128c17.673 0 32 14.327 32 32s-14.327 32-32 32h-128c-17.673 0-32-14.327-32-32s14.327-32 32-32zM679.612 511.082c-2.44 0.596-4.988 0.918-7.612 0.918h-320c-17.673 0-32-14.327-32-32s14.327-32 32-32h159.982c47.394 35.606 104.994 58.361 167.63 63.082zM320 288c0-17.673 14.327-32 32-32h38.407c4.519 22.263 11.365 43.677 20.245 64h-58.652c-17.673 0-32-14.327-32-32zM704 448c-141.385 0-256-114.615-256-256s114.615-256 256-256 256 114.615 256 256-114.615 256-256 256zM704 0c-106.039 0-192 85.961-192 192s85.961 192 192 192 192-85.961 192-192-85.961-192-192-192zM240 64c-26.51 0-48 21.49-48 48v736c0 26.51 21.49 48 48 48h544c26.51 0 48-21.49 48-48v-362.653c22.846-9.983 44.307-22.541 64-37.333v415.986c0 53.019-42.981 96-96 96h-576c-53.019 0-96-42.981-96-96v-768c0-53.019 42.981-96 96-96h223.986c-14.792 19.693-27.35 41.154-37.333 64h-170.653zM783.196 282.51l-113.137-113.137-45.255 45.255c-12.497 12.497-32.758 12.497-45.255 0s-12.497-32.758 0-45.255l67.882-67.882c12.497-12.497 32.758-12.497 45.255 0l135.764 135.765c12.497 12.497 12.497 32.758 0 45.255-12.496 12.495-32.757 12.495-45.254-0.001z" />
<glyph unicode="&#xe90a;" glyph-name="8" d="M208 832h-96c-26.4 0-48-21.6-48-48v-96c0-26.4 21.6-48 48-48h96c26.4 0 48 21.6 48 48v96c0 26.4-21.6 48-48 48zM192 704h-64v64h64v-64zM912 832h-544c-26.4 0-48-21.6-48-48v-96c0-26.4 21.6-48 48-48h544c26.4 0 48 21.6 48 48v96c0 26.4-21.6 48-48 48zM896 704h-512v64h512v-64zM208 512h-96c-26.4 0-48-21.6-48-48v-96c0-26.4 21.6-48 48-48h96c26.4 0 48 21.6 48 48v96c0 26.4-21.6 48-48 48zM192 384h-64v64h64v-64zM912 512h-544c-26.4 0-48-21.6-48-48v-96c0-26.4 21.6-48 48-48h544c26.4 0 48 21.6 48 48v96c0 26.4-21.6 48-48 48zM896 384h-512v64h512v-64zM208 192h-96c-26.4 0-48-21.6-48-48v-96c0-26.4 21.6-48 48-48h96c26.4 0 48 21.6 48 48v96c0 26.4-21.6 48-48 48zM192 64h-64v64h64v-64zM912 192h-544c-26.4 0-48-21.6-48-48v-96c0-26.4 21.6-48 48-48h544c26.4 0 48 21.6 48 48v96c0 26.4-21.6 48-48 48zM896 64h-512v64h512v-64z" />
<glyph unicode="&#xe90b;" glyph-name="9" d="M885.2 202.7c0 0 0.1 0 0 0l-0.8 0.9c-1.1 1.3-2.3 2.5-3.6 3.6l-112.8 112.8v224c0 124.8-80.4 231.7-192 271.4v46.9c0 53.7-44 97.7-97.7 97.7v0c-53.7 0-97.7-44-97.7-97.7v-48.1c-109.8-40.7-188.6-146.7-188.6-270.2v-224l-112.9-112.9c-1.3-1.1-2.5-2.3-3.6-3.6l-0.8-0.8c0 0 0 0 0.1-0.1-6.7-7.9-10.8-18.1-10.8-29.3 0-24.3 19-44.1 43-45.3v-0.1h216.2c14.8-72.9 79.4-127.9 156.8-127.9s142 55 156.8 128l216.2 0.1c24 1.2 43 21 43 45.3 0 11.1-4.1 21.3-10.8 29.3zM480 896v0c17.6 0 32-14.4 32-32v-33.4c-8.7 0.8-19.3 1.4-32 1.4-12 0-22.8-0.7-32-1.7v33.7c0 17.6 14.4 32 32 32zM480 64c-41.8 0-77.4 26.7-90.5 64h181c-13.1-37.3-48.7-64-90.5-64zM636.8 192h-481.9l64 64h0.4l36.8 36v252c0 123.2 100.8 224 224 224v0c123.2 0 224-100.8 224-224v-252l36.8-36h0.4l64-64h-168.5z" />
<glyph unicode="&#xe90c;" glyph-name="10" d="M864 349.8h-704c0 0 0 0 0 0-8.2 0-16.4-3.1-22.6-9.3v0c-6.2-6.2-9.3-14.4-9.3-22.6 0 0 0 0 0 0 0-0.2 0-0.4 0-0.6 0-0.3 0-0.6 0-0.9 0-0.4 0.1-0.8 0.1-1.2 0-0.1 0-0.2 0-0.3 0-0.5 0.1-0.9 0.2-1.4 0-0.1 0-0.1 0-0.2 0.1-0.5 0.1-0.9 0.2-1.4 0 0 0-0.1 0-0.1 0.1-0.4 0.2-0.9 0.3-1.3 0-0.1 0-0.1 0-0.2 0.1-0.4 0.2-0.8 0.3-1.2 0-0.1 0.1-0.2 0.1-0.3 0.1-0.4 0.2-0.7 0.3-1 0.1-0.2 0.1-0.3 0.2-0.5 0.1-0.3 0.2-0.6 0.3-0.9 0.1-0.2 0.2-0.4 0.3-0.7 0.1-0.2 0.2-0.4 0.3-0.6 0.1-0.3 0.2-0.6 0.4-0.8 0.1-0.1 0.1-0.3 0.2-0.4 0.2-0.3 0.3-0.7 0.5-1 0-0.1 0.1-0.2 0.1-0.3 0.2-0.4 0.4-0.7 0.6-1.1 0 0 0.1-0.1 0.1-0.1 0.2-0.4 0.5-0.8 0.8-1.2 0 0 0 0 0 0 0.3-0.4 0.6-0.8 0.9-1.2 0 0 0 0 0 0 0.3-0.4 0.6-0.8 0.9-1.2 0 0 0.1-0.1 0.1-0.1 0.3-0.4 0.6-0.7 0.9-1.1 0.2-0.2 0.3-0.3 0.5-0.5s0.4-0.4 0.6-0.6l226.3-226.3c12.4-12.4 32.8-12.4 45.3 0v0c12.4 12.4 12.4 32.8 0 45.3l-171.6 171.3h626.7c17.7 0 32 14.3 32 32s-14.3 32-32 32zM896 573.8c0 0.2 0 0.4 0 0.6 0 0.3 0 0.6 0 0.9 0 0.4-0.1 0.8-0.1 1.2 0 0.1 0 0.2 0 0.3 0 0.5-0.1 0.9-0.2 1.4 0 0.1 0 0.1 0 0.2-0.1 0.5-0.1 0.9-0.2 1.4 0 0 0 0.1 0 0.1-0.1 0.4-0.2 0.9-0.3 1.3 0 0.1 0 0.1 0 0.2-0.1 0.4-0.2 0.8-0.3 1.2 0 0.1-0.1 0.2-0.1 0.3-0.1 0.4-0.2 0.7-0.3 1-0.1 0.2-0.1 0.3-0.2 0.5-0.1 0.3-0.2 0.6-0.3 0.9-0.1 0.2-0.2 0.4-0.3 0.7-0.1 0.2-0.2 0.4-0.3 0.6-0.1 0.3-0.2 0.6-0.4 0.8-0.1 0.1-0.1 0.3-0.2 0.4-0.2 0.3-0.3 0.7-0.5 1 0 0.1-0.1 0.2-0.1 0.3-0.2 0.4-0.4 0.7-0.6 1.1 0 0-0.1 0.1-0.1 0.1-0.2 0.4-0.5 0.8-0.8 1.2 0 0 0 0 0 0-0.3 0.4-0.6 0.8-0.9 1.2 0 0 0 0 0 0-0.3 0.4-0.6 0.8-0.9 1.2 0 0-0.1 0.1-0.1 0.1-0.3 0.4-0.6 0.7-0.9 1.1-0.2 0.2-0.3 0.3-0.5 0.5s-0.4 0.4-0.6 0.6l-226.4 226.5c-12.4 12.4-32.8 12.4-45.3 0v0c-12.4-12.4-12.4-32.8 0-45.3l171.6-171.6h-626.7c-17.7 0-32-14.3-32-32s14.3-32 32-32h704c0 0 0 0 0 0 8.2 0 16.4 3.1 22.6 9.3v0c6.3 6.3 9.4 14.5 9.4 22.7 0 0 0 0 0 0z" />
<glyph unicode="&#xe90d;" glyph-name="11" d="M569.844 435.411l316.784 316.784c12.497 12.497 12.497 32.758 0 45.255s-32.758 12.497-45.255 0l-316.784-316.784-316.784 316.784c-12.497 12.497-32.758 12.497-45.255 0s-12.497-32.758 0-45.255l316.784-316.784-316.784-316.784c-12.497-12.497-12.497-32.758 0-45.255s32.758-12.497 45.255 0l316.784 316.784 316.784-316.784c12.497-12.497 32.758-12.497 45.255 0s12.497 32.758 0 45.255l-316.784 316.784z" />
<glyph unicode="&#xe90e;" glyph-name="12" d="M895.9 70.8c0 0.5 0 1.1 0 1.6 0 2.2-0.1 4.5-0.2 6.7 0 0.3 0 0.5 0 0.8-0.1 2.1-0.2 4.1-0.3 6.1 0 0.5-0.1 1-0.1 1.5-0.1 2.2-0.3 4.4-0.5 6.6 0 0.4-0.1 0.8-0.1 1.2-0.2 2-0.3 3.9-0.5 5.8 0 0.4-0.1 0.9-0.1 1.3-0.2 2.2-0.5 4.4-0.7 6.5-0.1 0.5-0.1 0.9-0.2 1.4-0.2 1.9-0.5 3.9-0.7 5.8 0 0.3-0.1 0.7-0.1 1.1-0.3 2.2-0.6 4.3-1 6.5-0.1 0.5-0.2 1-0.2 1.5-0.3 2-0.7 4-1 6.1 0 0.2-0.1 0.4-0.1 0.6-0.4 2.2-0.8 4.3-1.2 6.4-0.1 0.5-0.2 1-0.3 1.5-0.4 2.1-0.9 4.3-1.3 6.4 0 0.1 0 0.2-0.1 0.2-0.5 2.1-0.9 4.1-1.4 6.2-0.1 0.5-0.2 1-0.3 1.5-0.5 2.1-1 4.2-1.6 6.3-0.1 0.3-0.1 0.5-0.2 0.8-0.5 1.9-1 3.8-1.5 5.7-0.1 0.4-0.2 0.9-0.4 1.3-0.6 2.1-1.2 4.1-1.8 6.2-0.1 0.4-0.2 0.7-0.3 1.1-0.6 1.8-1.1 3.6-1.7 5.4-0.1 0.4-0.2 0.8-0.4 1.2-0.7 2-1.3 4-2 6.1-0.1 0.4-0.3 0.9-0.4 1.3-0.6 1.8-1.3 3.6-1.9 5.5-0.1 0.3-0.2 0.6-0.3 0.8-0.7 2-1.5 4-2.2 6-0.2 0.4-0.3 0.9-0.5 1.3-0.7 1.9-1.5 3.9-2.3 5.8 0 0.1-0.1 0.2-0.1 0.3-0.8 2-1.6 4-2.5 5.9-0.2 0.4-0.4 0.9-0.6 1.3-0.9 2-1.7 3.9-2.6 5.9-0.1 0.1-0.1 0.2-0.2 0.4-0.8 1.9-1.7 3.7-2.6 5.6-0.2 0.4-0.4 0.8-0.6 1.3-0.9 1.9-1.8 3.8-2.8 5.7-0.1 0.3-0.3 0.5-0.4 0.8-0.9 1.7-1.7 3.4-2.6 5.1-0.2 0.4-0.4 0.8-0.6 1.1-1 1.9-2 3.7-3 5.6-0.2 0.3-0.4 0.7-0.6 1-0.9 1.7-1.8 3.3-2.8 5-0.2 0.3-0.3 0.6-0.5 0.9-1.1 1.8-2.1 3.7-3.2 5.5-0.2 0.4-0.4 0.7-0.7 1.1-1 1.7-2 3.4-3.1 5.1-0.1 0.2-0.2 0.4-0.3 0.5-1.1 1.8-2.3 3.6-3.4 5.4-0.2 0.4-0.5 0.8-0.7 1.1-2.3 3.6-4.7 7.2-7.2 10.7-0.3 0.4-0.5 0.7-0.8 1.1-1.2 1.7-2.5 3.5-3.7 5.2-0.1 0.1-0.2 0.2-0.3 0.3-1.2 1.6-2.4 3.3-3.6 4.9-0.3 0.3-0.5 0.7-0.8 1-1.3 1.7-2.6 3.4-3.9 5-0.2 0.2-0.4 0.4-0.5 0.7-1.2 1.5-2.4 3-3.7 4.5-0.2 0.3-0.5 0.6-0.7 0.9-1.3 1.6-2.7 3.3-4.1 4.9-0.2 0.3-0.5 0.6-0.7 0.8-1.3 1.5-2.5 3-3.8 4.4-0.2 0.2-0.4 0.4-0.5 0.6-1.4 1.6-2.8 3.2-4.3 4.8-0.3 0.3-0.5 0.6-0.8 0.9-1.4 1.5-2.8 3-4.2 4.5-0.1 0.1-0.1 0.1-0.2 0.2-1.5 1.6-3 3.1-4.5 4.6-0.3 0.3-0.6 0.6-0.9 0.9-3 3.1-6.1 6.1-9.3 9-0.3 0.3-0.6 0.6-0.9 0.8-1.6 1.5-3.2 2.9-4.8 4.4-0.1 0.1-0.2 0.2-0.3 0.3-1.5 1.4-3 2.7-4.6 4.1-0.3 0.2-0.6 0.5-0.8 0.7-1.6 1.4-3.2 2.8-4.9 4.2-0.2 0.2-0.4 0.3-0.6 0.5-1.5 1.3-3.1 2.5-4.6 3.8-0.2 0.2-0.5 0.4-0.7 0.6-1.7 1.4-3.4 2.7-5 4-0.3 0.2-0.5 0.4-0.8 0.6-1.6 1.2-3.2 2.5-4.8 3.7-0.2 0.1-0.3 0.2-0.5 0.4-1.7 1.3-3.5 2.6-5.2 3.8-0.3 0.2-0.6 0.4-0.9 0.7-3.5 2.5-7.1 5-10.7 7.5-0.3 0.2-0.6 0.4-1 0.6-3.6 2.4-7.3 4.8-11 7.1-0.3 0.2-0.6 0.4-1 0.6-1.9 1.1-3.7 2.3-5.6 3.4-0.1 0.1-0.3 0.2-0.4 0.2-1.8 1-3.6 2.1-5.4 3.1-0.3 0.2-0.6 0.3-0.9 0.5-1.9 1.1-3.8 2.1-5.7 3.2-0.2 0.1-0.5 0.3-0.7 0.4-1.8 1-3.6 1.9-5.4 2.8-0.2 0.1-0.5 0.2-0.7 0.4-1.9 1-3.9 2-5.8 2.9-0.3 0.2-0.6 0.3-0.9 0.5-1.9 0.9-3.8 1.8-5.7 2.7-0.1 0.1-0.2 0.1-0.4 0.2-2 0.9-4 1.8-6 2.7-0.3 0.2-0.7 0.3-1 0.5-4 1.8-8.1 3.5-12.2 5.2-0.4 0.1-0.7 0.3-1.1 0.4-2.1 0.8-4.1 1.6-6.2 2.4v0c71.7 45.2 119.6 125.3 119.6 216.7 0 141.4-114.6 256-256 256s-256-114.6-256-256c0-91.4 47.9-171.5 119.9-216.8v0c-2.1-0.8-4.2-1.6-6.2-2.4-0.4-0.1-0.7-0.3-1.1-0.4-4.1-1.7-8.2-3.4-12.2-5.2-0.3-0.2-0.7-0.3-1-0.5-2-0.9-4-1.8-6-2.7-0.1-0.1-0.2-0.1-0.4-0.2-1.9-0.9-3.8-1.8-5.7-2.7-0.3-0.2-0.6-0.3-0.9-0.5-2-1-3.9-1.9-5.8-2.9-0.2-0.1-0.5-0.2-0.7-0.4-1.8-0.9-3.6-1.9-5.4-2.8-0.2-0.1-0.5-0.3-0.7-0.4-1.9-1-3.8-2.1-5.7-3.2-0.3-0.2-0.6-0.3-0.9-0.5-1.8-1-3.6-2-5.4-3.1-0.1-0.1-0.3-0.2-0.4-0.2-1.9-1.1-3.7-2.2-5.6-3.4-0.3-0.2-0.6-0.4-1-0.6-3.7-2.3-7.4-4.7-11-7.1-0.3-0.2-0.6-0.4-1-0.6-3.6-2.4-7.2-4.9-10.7-7.5-0.3-0.2-0.6-0.4-0.9-0.7-1.8-1.3-3.5-2.5-5.2-3.8-0.2-0.1-0.3-0.2-0.5-0.4-1.6-1.2-3.2-2.4-4.8-3.7-0.3-0.2-0.5-0.4-0.8-0.6-1.7-1.3-3.4-2.7-5-4-0.2-0.2-0.5-0.4-0.7-0.6-1.5-1.3-3.1-2.5-4.6-3.8-0.2-0.2-0.4-0.3-0.6-0.5-1.6-1.4-3.3-2.8-4.9-4.2-0.3-0.2-0.6-0.5-0.8-0.7-1.5-1.3-3.1-2.7-4.6-4.1-0.1-0.1-0.2-0.2-0.3-0.3-1.6-1.4-3.2-2.9-4.8-4.4-0.3-0.3-0.6-0.6-0.9-0.8-3.1-3-6.2-6-9.3-9-0.3-0.3-0.6-0.6-0.9-0.9-1.5-1.5-3-3.1-4.5-4.6-0.1-0.1-0.1-0.1-0.2-0.2-1.4-1.5-2.8-3-4.2-4.5-0.3-0.3-0.5-0.6-0.8-0.9-1.4-1.6-2.9-3.2-4.3-4.8-0.2-0.2-0.4-0.4-0.5-0.6-1.3-1.5-2.6-2.9-3.8-4.4-0.2-0.3-0.5-0.5-0.7-0.8-1.4-1.6-2.7-3.2-4.1-4.9-0.2-0.3-0.5-0.6-0.7-0.9-1.2-1.5-2.4-3-3.7-4.5-0.2-0.2-0.4-0.4-0.5-0.7-1.3-1.7-2.6-3.3-3.9-5-0.3-0.3-0.5-0.7-0.8-1-1.2-1.6-2.4-3.2-3.6-4.9-0.1-0.1-0.2-0.2-0.3-0.3-1.3-1.7-2.5-3.5-3.7-5.2-0.3-0.4-0.5-0.7-0.8-1.1-2.5-3.5-4.9-7.1-7.2-10.7-0.2-0.4-0.5-0.8-0.7-1.1-1.2-1.8-2.3-3.6-3.4-5.4-0.1-0.2-0.2-0.4-0.3-0.5-1-1.7-2.1-3.4-3.1-5.1-0.2-0.4-0.4-0.7-0.7-1.1-1.1-1.8-2.1-3.6-3.2-5.5-0.2-0.3-0.3-0.6-0.5-0.9-0.9-1.7-1.9-3.3-2.8-5-0.2-0.3-0.4-0.7-0.6-1-1-1.9-2-3.7-3-5.6-0.2-0.4-0.4-0.8-0.6-1.1-0.9-1.7-1.8-3.4-2.6-5.1-0.1-0.3-0.3-0.5-0.4-0.8-0.9-1.9-1.9-3.8-2.8-5.7-0.2-0.4-0.4-0.8-0.6-1.3-0.9-1.8-1.7-3.7-2.6-5.6-0.1-0.1-0.1-0.2-0.2-0.4-0.9-1.9-1.7-3.9-2.6-5.9-0.2-0.4-0.4-0.9-0.6-1.3-0.8-2-1.7-4-2.5-5.9 0-0.1-0.1-0.2-0.1-0.3-0.8-1.9-1.5-3.8-2.3-5.8-0.2-0.4-0.3-0.9-0.5-1.3-0.8-2-1.5-4-2.2-6-0.1-0.3-0.2-0.5-0.3-0.8-0.7-1.8-1.3-3.6-1.9-5.5-0.1-0.4-0.3-0.9-0.4-1.3-0.7-2-1.4-4-2-6.1-0.1-0.4-0.2-0.8-0.4-1.2-0.6-1.8-1.1-3.6-1.7-5.4-0.1-0.4-0.2-0.7-0.3-1.1-0.6-2-1.2-4.1-1.8-6.2-0.1-0.4-0.2-0.9-0.4-1.3-0.5-1.9-1-3.8-1.5-5.7-0.1-0.3-0.1-0.5-0.2-0.8-0.5-2.1-1.1-4.2-1.6-6.3-0.1-0.5-0.2-1-0.3-1.5-0.5-2.1-1-4.1-1.4-6.2 0-0.1 0-0.2-0.1-0.2-0.5-2.1-0.9-4.3-1.3-6.4-0.1-0.5-0.2-1-0.3-1.5-0.4-2.1-0.8-4.3-1.2-6.4 0-0.2-0.1-0.4-0.1-0.6-0.4-2-0.7-4-1-6.1-0.1-0.5-0.2-1-0.2-1.5-0.3-2.1-0.7-4.3-1-6.5 0-0.3-0.1-0.7-0.1-1.1-0.3-1.9-0.5-3.9-0.7-5.8-0.1-0.5-0.1-0.9-0.2-1.4-0.3-2.2-0.5-4.3-0.7-6.5 0-0.4-0.1-0.9-0.1-1.3-0.2-1.9-0.4-3.9-0.5-5.8 0-0.4-0.1-0.8-0.1-1.2-0.2-2.2-0.3-4.4-0.5-6.6 0-0.5-0.1-1-0.1-1.5-0.1-2-0.2-4.1-0.3-6.1 0-0.3 0-0.5 0-0.8-0.1-2.2-0.1-4.5-0.2-6.7 0-0.5 0-1.1 0-1.6 0-2.3-0.1-4.5-0.1-6.8v0c0-35.3 28.7-64 64-64h640c35.3 0 64 28.7 64 64v0c-0.3 2.4-0.3 4.7-0.4 6.9zM320 640c0 106 86 192 192 192s192-86 192-192-86-192-192-192-192 86-192 192zM192 64c0 176.7 143.3 320 320 320s320-143.3 320-320h-640z" />
<glyph unicode="&#xe90f;" glyph-name="13" d="M864 832h-160v32c0 17.7-14.3 32-32 32s-32-14.3-32-32v-32h-256v32c0 17.7-14.3 32-32 32s-32-14.3-32-32v-32h-160c-53 0-96-43-96-96v-704c0-53 43-96 96-96h704c53 0 96 43 96 96v704c0 53-43 96-96 96zM896 48c0-26.5-21.5-48-48-48h-672c-26.5 0-48 21.5-48 48v528h768v-528zM896 640h-768v80c0 26.5 21.5 48 48 48h144v-32c0-17.7 14.3-32 32-32s32 14.3 32 32v32h256v-32c0-17.7 14.3-32 32-32s32 14.3 32 32v32h144c26.5 0 48-21.5 48-48v-80zM288 384h64c17.7 0 32 14.3 32 32s-14.3 32-32 32h-64c-17.7 0-32-14.3-32-32s14.3-32 32-32zM480 384h64c17.7 0 32 14.3 32 32s-14.3 32-32 32h-64c-17.7 0-32-14.3-32-32s14.3-32 32-32zM672 384h64c17.7 0 32 14.3 32 32s-14.3 32-32 32h-64c-17.7 0-32-14.3-32-32s14.3-32 32-32zM288 256h64c17.7 0 32 14.3 32 32s-14.3 32-32 32h-64c-17.7 0-32-14.3-32-32s14.3-32 32-32zM480 256h64c17.7 0 32 14.3 32 32s-14.3 32-32 32h-64c-17.7 0-32-14.3-32-32s14.3-32 32-32zM672 256h64c17.7 0 32 14.3 32 32s-14.3 32-32 32h-64c-17.7 0-32-14.3-32-32s14.3-32 32-32zM288 128h64c17.7 0 32 14.3 32 32s-14.3 32-32 32h-64c-17.7 0-32-14.3-32-32s14.3-32 32-32zM480 128h64c17.7 0 32 14.3 32 32s-14.3 32-32 32h-64c-17.7 0-32-14.3-32-32s14.3-32 32-32zM672 128h64c17.7 0 32 14.3 32 32s-14.3 32-32 32h-64c-17.7 0-32-14.3-32-32s14.3-32 32-32z" />
<glyph unicode="&#xe910;" glyph-name="14" d="M928.5 319.5h-256c-17.7 0-32-14.3-32-32s14.3-32 32-32h256c17.7 0 32 14.3 32 32s-14.3 32-32 32zM928.5 191.5h-256c-17.7 0-32-14.3-32-32s14.3-32 32-32h256c17.7 0 32 14.3 32 32s-14.3 32-32 32zM640.5 415.5c0-17.7 14.3-32 32-32h256c17.7 0 32 14.3 32 32s-14.3 32-32 32h-256c-17.7 0-32-14.3-32-32zM832.5 799.5c0 17.4-13.9 31.5-31.2 32v0c-0.3 0-0.5 0-0.8 0 0 0 0 0 0 0h-704c0 0 0 0 0 0-0.5 0-1.1 0-1.6 0 0 0-0.1 0-0.1 0s0 0-0.1 0v0c-16.8-0.9-30.2-14.9-30.2-31.9 0-5.3 1.3-10.3 3.6-14.7 0-0.1 0.1-0.1 0.1-0.2s0.1-0.1 0.1-0.2c0 0 0 0 0 0 0.3-0.6 0.7-1.3 1.1-1.9 0.1-0.1 0.2-0.3 0.2-0.4 0.4-0.6 0.8-1.2 1.2-1.8 0 0 0 0 0 0l249.6-332.6v-224.2c0-0.6 0-1.2 0.1-1.9-0.7-12.1 5.6-24.1 17.1-30.1l190.9-124.3c5-2.6 10.3-3.8 15.5-3.6 0.2 0 0.3 0 0.5 0 17.7 0 32 14.3 32 32v352l249.6 332.6c0 0 0 0 0 0.1 4 5.3 6.4 11.9 6.4 19.1zM512.5 153.6l-128 83.4v210.5h128.1v-293.9zM544.4 511.5h-191.8l-192.1 256h576l-192.1-256z" />
<glyph unicode="&#xe911;" glyph-name="15" d="M800 447.5c17.7 0 32-14.3 32-32v0c0-17.7-14.3-32-32-32h-512c-17.7 0-32 14.3-32 32v0c0 17.7 14.3 32 32 32h512zM544 895.5c-265.1 0-480-214.9-480-480s214.9-480 480-480 480 214.9 480 480-214.9 480-480 480zM544-0.5c-229.8 0-416 186.2-416 416s186.2 416 416 416 416-186.2 416-416-186.2-416-416-416z" />
<glyph unicode="&#xe912;" glyph-name="16" d="M864 896h-192c-53 0-96-43-96-96v-192c0-53 43-96 96-96h192c53 0 96 43 96 96v192c0 53-43 96-96 96zM896 624c0-26.5-21.5-48-48-48h-160c-26.5 0-48 21.5-48 48v160c0 26.5 21.5 48 48 48h160c26.5 0 48-21.5 48-48v-160zM352 896h-192c-53 0-96-43-96-96v-192c0-53 43-96 96-96h192c53 0 96 43 96 96v192c0 53-43 96-96 96zM384 624c0-26.5-21.5-48-48-48h-160c-26.5 0-48 21.5-48 48v160c0 26.5 21.5 48 48 48h160c26.5 0 48-21.5 48-48v-160zM864 384h-192c-53 0-96-43-96-96v-192c0-53 43-96 96-96h192c53 0 96 43 96 96v192c0 53-43 96-96 96zM896 112c0-26.5-21.5-48-48-48h-160c-26.5 0-48 21.5-48 48v160c0 26.5 21.5 48 48 48h160c26.5 0 48-21.5 48-48v-160zM352 384h-192c-53 0-96-43-96-96v-192c0-53 43-96 96-96h192c53 0 96 43 96 96v192c0 53-43 96-96 96zM384 112c0-26.5-21.5-48-48-48h-160c-26.5 0-48 21.5-48 48v160c0 26.5 21.5 48 48 48h160c26.5 0 48-21.5 48-48v-160z" />
<glyph unicode="&#xe913;" glyph-name="17" d="M942.7 266.7l-407.3 407.3c-12.5 12.5-32.8 12.5-45.3 0l-407.3-407.3c-12.5-12.5-12.5-32.8 0-45.3s32.8-12.5 45.3 0l384.7 384.7 384.7-384.7c12.5-12.5 32.8-12.5 45.3 0s12.4 32.8-0.1 45.3z" />
<glyph unicode="&#xe914;" glyph-name="18" d="M864 896h-640c-53 0-96-43-96-96v-576c0-53 43-96 96-96h288v-64h-224c-17.7 0-32-14.3-32-32s14.3-32 32-32h512c17.7 0 32 14.3 32 32s-14.3 32-32 32h-224v64h288c53 0 96 43 96 96v576c0 53-43 96-96 96zM896 240c0-26.5-21.5-48-48-48h-608c-26.5 0-48 21.5-48 48v544c0 26.5 21.5 48 48 48h608c26.5 0 48-21.5 48-48v-544zM800 704h-128c-17.7 0-32-14.3-32-32s14.3-32 32-32h51l-150.7-179.3-113 70.6c-12.7 8-28.9 5.9-39.3-4.1-0.1-0.1-0.2-0.2-0.4-0.4s-0.4-0.4-0.6-0.6c-0.8-0.9-1.6-1.8-2.3-2.7l-154.2-152c-10.7-14.1-8-34.1 6.1-44.8s34.1-8 44.8 6.1l133 131.2 112.6-70.5c10.7-8.4 25.4-9 36.6-2.1 0.2 0.1 0.4 0.3 0.6 0.4l0.1 0.1c3.3 2.1 6.2 4.9 8.6 8.2l163 194.1v-50.2c0-17.7 14.3-32 32-32s32 14.3 32 32v128c0.1 17.7-14.2 32-31.9 32z" />
<glyph unicode="&#xe915;" glyph-name="19" d="M389.9 535h52c3.3 0 6 2.7 6 6v52c0 3.3-2.7 6-6 6h-52c-3.3 0-6-2.7-6-6v-52c0-3.3 2.7-6 6-6zM517.9 535h52c3.3 0 6 2.7 6 6v52c0 3.3-2.7 6-6 6h-52c-3.3 0-6-2.7-6-6v-52c0-3.3 2.7-6 6-6zM517.9 641.5h52c3.3 0 6 2.7 6 6v52c0 3.3-2.7 6-6 6h-52c-3.3 0-6-2.7-6-6v-52c0-3.3 2.7-6 6-6zM389.9 641.5h52c3.3 0 6 2.7 6 6v52c0 3.3-2.7 6-6 6h-52c-3.3 0-6-2.7-6-6v-52c0-3.3 2.7-6 6-6zM947 449.6h-237.2c-3.3 0-6 2.7-6 6v365.4c0 6.6-5.4 12-12 12h-422.9c-6.6 0-12-5.4-12-12v-173.5c0-3.3-2.7-6-6-6h-174.8c-6.6 0-12-5.4-12-12v-615.5c0-6.6 5.4-12 12-12h870.9c6.6 0 12 5.4 12 12v423.7c0 6.6-5.4 11.9-12 11.9zM256.1 519.5c0-3.3-2.7-6-6-6h-52c-3.3 0-6-2.7-6-6v-52c0-3.3 2.7-6 6-6h52c3.3 0 6-2.7 6-6v-51.9c0-3.3-2.7-6-6-6h-52c-3.3 0-6-2.7-6-6v-52c0-3.3 2.7-6 6-6h52c3.3 0 6-2.7 6-6v-51.9c0-3.3-2.7-6-6-6h-52c-3.3 0-6-2.7-6-6v-52c0-3.3 2.7-6 6-6h52c3.3 0 6-2.7 6-6v-116c0-3.3-2.7-6-6-6h-116c-3.3 0-6 2.7-6 6v499.9c0 3.3 2.7 6 6 6h116c3.3 0 6-2.7 6-6v-52.1zM639.8 71.9c0-3.3-2.7-6-6-6h-83.3c-3.3 0-6 2.7-6 6v116.1c0 3.3 2.7 6 6 6h19.3c3.3 0 6 2.7 6 6v52c0 3.3-2.7 6-6 6h-179.9c-3.3 0-6-2.7-6-6v-52c0-3.3 2.7-6 6-6h20.7c3.3 0 6-2.7 6-6v-116c0-3.3-2.7-6-6-6h-83.8c-3.3 0-6 2.7-6 6v691c0 3.3 2.7 6 6 6h307c3.3 0 6-2.7 6-6v-691.1zM889 65.9h-179.2c-3.3 0-6 2.7-6 6v52.3c0 3.3 2.7 6 6 6h116c3.3 0 6 2.7 6 6v52c0 3.3-2.7 6-6 6h-116c-3.3 0-6 2.7-6 6v51.8c0 3.3 2.7 6 6 6h116c3.3 0 6 2.7 6 6v52c0 3.3-2.7 6-6 6h-116c-3.3 0-6 2.7-6 6v51.9c0 3.3 2.7 6 6 6h179.1c3.3 0 6-2.7 6-6v-307.8h0.1c0-3.5-2.7-6.2-6-6.2zM569.9 385.8h-52c-3.3 0-6-2.7-6-6v-52c0-3.3 2.7-6 6-6h52c3.3 0 6 2.7 6 6v52c0 3.3-2.7 6-6 6zM442 385.8h-52c-3.3 0-6-2.7-6-6v-52c0-3.3 2.7-6 6-6h52c3.3 0 6 2.7 6 6v52c0 3.3-2.7 6-6 6zM389.9 428.4h52c3.3 0 6 2.7 6 6v52c0 3.3-2.7 6-6 6h-52c-3.3 0-6-2.7-6-6v-52c0-3.3 2.7-6 6-6zM517.9 428.4h52c3.3 0 6 2.7 6 6v52c0 3.3-2.7 6-6 6h-52c-3.3 0-6-2.7-6-6v-52c0-3.3 2.7-6 6-6z" />
<glyph unicode="&#xe916;" glyph-name="20" d="M928 576h-832c-52.8 0-96-43.2-96-96v-320c0-52.8 43.2-96 96-96h832c52.8 0 96 43.2 96 96v320c0 52.8-43.2 96-96 96zM960 176c0-26.5-21.5-48-48-48h-800c-26.5 0-48 21.5-48 48v288c0 26.5 21.5 48 48 48h800c26.5 0 48-21.5 48-48v-288zM160 384v0c-17.6 0-32-14.4-32-32v-64c0-17.6 14.4-32 32-32v0c17.6 0 32 14.4 32 32v64c0 17.6-14.4 32-32 32zM288 384v0c-17.6 0-32-14.4-32-32v-64c0-17.6 14.4-32 32-32v0c17.6 0 32 14.4 32 32v64c0 17.6-14.4 32-32 32zM896 320c0-35.346-28.654-64-64-64s-64 28.654-64 64c0 35.346 28.654 64 64 64s64-28.654 64-64zM704 320c0-35.346-28.654-64-64-64s-64 28.654-64 64c0 35.346 28.654 64 64 64s64-28.654 64-64zM160 640h704c17.6 0 32 14.4 32 32v0c0 17.6-14.4 32-32 32h-704c-17.6 0-32-14.4-32-32v0c0-17.6 14.4-32 32-32zM288 768h448c17.6 0 32 14.4 32 32v0c0 17.6-14.4 32-32 32h-448c-17.6 0-32-14.4-32-32v0c0-17.6 14.4-32 32-32z" />
<glyph unicode="&#xe917;" glyph-name="21" d="M224 704v0c-17.6 0-32-14.4-32-32v-64c0-17.6 14.4-32 32-32v0c17.6 0 32 14.4 32 32v64c0 17.6-14.4 32-32 32zM224 512v0c-17.6 0-32-14.4-32-32v-64c0-17.6 14.4-32 32-32v0c17.6 0 32 14.4 32 32v64c0 17.6-14.4 32-32 32zM224 320v0c-17.6 0-32-14.4-32-32v-64c0-17.6 14.4-32 32-32v0c17.6 0 32 14.4 32 32v64c0 17.6-14.4 32-32 32zM736 512h-82.7l73.4 73.4c12.4 12.4 12.4 32.8 0 45.3v0c-12.4 12.4-32.8 12.4-45.3 0l-106.3-105.6-104.5 105.6c-12.4 12.4-32.8 12.4-45.3 0v0c-12.4-12.4-12.4-32.8 0-45.3l73.4-73.4h-82.7c-17.6 0-32-14.4-32-32v0c0-17.6 14.4-32 32-32h128v-64h-128c-17.6 0-32-14.4-32-32v0c0-17.6 14.4-32 32-32h128v-64c0-17.6 14.4-32 32-32v0c17.6 0 32 14.4 32 32v64h128c17.6 0 32 14.4 32 32v0c0 17.6-14.4 32-32 32h-128v64h128c17.6 0 32 14.4 32 32v0c0 17.6-14.4 32-32 32zM928 832h-832c-52.8 0-96-43.2-96-96v-224c35.3 0 64-28.7 64-64s-28.7-64-64-64v-224c0-52.8 43.2-96 96-96h832c52.8 0 96 43.2 96 96v224c-35.3 0-64 28.7-64 64s28.7 64 64 64v224c0 52.8-43.2 96-96 96zM896 448c0-47.4 25.7-88.7 64-110.9v-161.1c0-26.5-21.5-48-48-48h-800c-26.5 0-48 21.5-48 48v161.1c38.3 22.1 64 63.5 64 110.9s-25.7 88.7-64 110.9v161.1c0 26.5 21.5 48 48 48h800c26.5 0 48-21.5 48-48v-161.1c-38.3-22.2-64-63.5-64-110.9z" />
<glyph unicode="&#xe918;" glyph-name="22" d="M942.7 674c-12.5 12.5-32.8 12.5-45.3 0l-384.6-384.6-384.7 384.6c-12.5 12.5-32.8 12.5-45.3 0s-12.5-32.8 0-45.3l407.3-407.3c12.5-12.5 32.8-12.5 45.3 0l407.3 407.3c12.5 12.6 12.5 32.8 0 45.3z" />
<glyph unicode="&#xe919;" glyph-name="23" d="M736 447.5c17.7 0 32 14.3 32 32s-14.3 32-32 32h-133.5l73.4 73.4c12.5 12.5 12.5 32.8 0 45.3s-32.8 12.5-45.3 0l-86.6-86.7-86.6 86.6c-12.5 12.5-32.8 12.5-45.3 0s-12.5-32.8 0-45.3l73.4-73.4h-133.5c-17.7 0-32-14.3-32-32s14.3-32 32-32h160v-128h-160c-17.7 0-32-14.3-32-32s14.3-32 32-32h160v-96c0-17.7 14.3-32 32-32s32 14.3 32 32v96h160c17.7 0 32 14.3 32 32s-14.3 32-32 32h-160v128h160zM544 895.5c-265.1 0-480-214.9-480-480s214.9-480 480-480 480 214.9 480 480-214.9 480-480 480zM544-0.5c-229.8 0-416 186.2-416 416s186.2 416 416 416 416-186.2 416-416-186.2-416-416-416z" />
<glyph unicode="&#xe91a;" glyph-name="24" d="M688.5 703.5h160c26.51 0 48 21.49 48 48v96c0 26.51-21.49 48-48 48h-160c-26.51 0-48-21.49-48-48v-16h-224c-17.673 0-32-14.327-32-32v-352h-64v16c0 26.51-21.49 48-48 48h-160c-26.51 0-48-21.49-48-48v-96c0-26.51 21.49-48 48-48h160c26.51 0 48 21.49 48 48v16h64v-352c0-17.673 14.327-32 32-32h224v-16c0-26.51 21.49-48 48-48h160c26.51 0 48 21.49 48 48v96c0 26.51-21.49 48-48 48h-160c-26.51 0-48-21.49-48-48v-16h-192v320h192v-16c0-26.51 21.49-48 48-48h160c26.51 0 48 21.49 48 48v96c0 26.51-21.49 48-48 48h-160c-26.51 0-48-21.49-48-48v-16h-192v320h192v-16c0-26.51 21.49-48 48-48zM704.5 831.5h128v-64h-128v64zM256.5 383.5h-128v64h128v-64zM704.5 63.5h128v-64h-128v64zM704.5 447.5h128v-64h-128v64z" />
<glyph unicode="&#xe91b;" glyph-name="25" d="M578.7 640c0-35.346-28.654-64-64-64s-64 28.654-64 64c0 35.346 28.654 64 64 64s64-28.654 64-64zM962.7 43v0 0c-0.2 0.6-0.5 1.2-0.7 1.8l-129.4 382.4c-4.6 12.1-16.3 20.8-30 20.8h-110.7l33.9 46.9c0.8 1.1 1.5 2.2 2.1 3.3 37 55.5 52.9 126.2 36.3 200.8-21.8 97.4-99.8 172.8-197.7 191.9-164.1 32.1-307.8-92.6-307.8-250.9 0-52.5 15.8-101.2 42.9-141.8 0.6-1.1 1.3-2.2 2.1-3.3l33.9-46.9h-109c-13.7 0-25.4-8.7-30-20.8l-130.6-381.3c-0.5-1.1-1-2.3-1.4-3.4v0 0c-1.1-3.3-1.8-6.8-1.8-10.4v0c0-17.6 14.4-32 32-32h835.8c17.6 0 32 14.4 32 32v0c0 3.7-0.6 7.4-1.9 10.9zM327.7 684.4c15.7 69.9 69.9 125.2 139.5 141.9 126.6 30.4 239.5-64.8 239.5-186.3 0-39.9-12.2-76.9-33-107.6h0.2l-159.2-220-159.2 220h0.2c-28.4 41.8-40.7 95.4-28 152zM249.7 384h134.2l91.3-126.2 3.4-4.6c8.4-11.6 21.8-18.5 36.1-18.5v0c14.3 0 27.7 6.9 36.1 18.5l3.4 4.6 91.4 126.2h135.9l20.7-64.1c-0.7 0.1-1.5 0.1-2.2 0.1h-128c-17.6 0-32-14.4-32-32v0c0-17.6 14.4-32 32-32h150.9l20.7-64h-299.6c-17.6 0-32-14.4-32-32v0-96h-128v160c0 17.6-14.4 32-32 32v0h-128c-6.4 0-12.3-1.9-17.3-5.1l43 133.1zM192 205.4v-13.4h128v-128h-173.7l45.7 141.4zM576 64v64h288.2l20.7-64h-308.9z" />
</font>
</defs>
</svg>
